<?xml version="1.0" encoding="utf-8"?>
<svg viewBox="0 0 500 500" xmlns="http://www.w3.org/2000/svg">
  <path d="M 69.147 66.286 C 69.147 137.733 36.811 276.506 104.631 292.924 C 156.972 305.595 271.307 322.283 248.855 243.704 C 240.587 214.764 201.384 194.423 184.756 227.68 C 173.313 250.564 180.036 276.616 190.479 297.502 C 202.111 320.766 229.543 328.882 252.289 334.131 C 314.025 348.378 369.179 345.274 430.853 337.565 C 456.073 334.412 465.379 311.341 473.204 291.779 C 474.705 288.026 478.141 275.588 475.493 271.176 C 468.24 259.086 452.492 252.652 440.01 248.283 C 430.634 245.002 421.086 244.781 411.394 243.704 C 389.153 241.233 367.957 263.315 359.885 281.478 C 343.162 319.104 365.565 375.83 328.98 405.098 C 303.802 425.24 269.381 419.377 239.698 421.123 C 220.079 422.277 198.253 424.25 179.033 419.978 C 167.924 417.51 141.924 397.725 152.706 383.35 C 163.803 368.554 182.965 384.486 192.768 392.507 C 209.746 406.398 223.36 431.378 241.988 441.727 C 266.763 455.491 298.183 456.041 325.546 457.751 C 337.312 458.487 387.356 468.733 387.356 450.884" style="stroke: black; fill: none;"/>
</svg>