<?xml version="1.0" encoding="utf-8"?>
<svg id="svg2" width="1750" height="877.0542" viewBox="0 0 1750 877.0542" xmlns="http://www.w3.org/2000/svg">
  <g id="layer1" transform="translate(194.44928,-44.379433)">
    <path id="path4558" style="fill:#000000;fill-opacity:0.25806451;fill-rule:evenodd;stroke:none;stroke-width:9.33389091;stroke-linecap:round;stroke-linejoin:miter;stroke-miterlimit:4;stroke-dasharray:none;stroke-opacity:1" d="m -1130.163,312.88392 c 29.6679,-26.97341 59.3357,-53.94688 93.1571,-53.94688 l -0.086,9.2e-4 c 33.8213,0 63.48908,26.97347 93.15696,53.94689 l -0.0175,-0.0131 c 29.66782,26.97347 59.33555,53.94695 93.15693,53.94695 l -0.0856,-9.3e-4 c 33.82129,0 63.48913,-26.97347 93.15696,-53.94694 l -0.006,0.005 c 29.6678,-26.97342 59.33565,-53.94688 93.15695,-53.94688 l -0.0856,9.2e-4 c 33.82127,0 63.48912,26.97347 93.15695,53.94688 l -0.004,-0.004 c 29.66782,26.97347 59.33558,53.94694 93.15698,53.94694 l -0.086,-9.2e-4 c 33.8213,0 63.4891,-26.97348 93.157,-53.94694 l -0.01,0.005 c 29.6678,-26.97341 59.3356,-53.94688 93.15689,-53.94688 l -0.086,9.3e-4 c 33.8213,0 63.4892,26.97346 93.1569,53.94687 l -0.018,-0.0131 c 29.6678,26.97346 59.33569,53.94694 93.15689,53.94694 l -0.086,-9.2e-4 c 33.821397,0 63.489097,-26.97348 93.156897,-53.94695 l -0.01,0.005 c 29.6678,-26.97341 59.3358,-53.94688 93.1569,-53.94688 l -0.085,9.1e-4 c 33.821103,0 63.489003,26.97347 93.156803,53.94688 l -0.011,0.0116 c 29.6677,26.97347 59.3356,53.94695 93.1568,53.94695 l -0.086,-9.1e-4 c 33.82134,0 63.48924,-26.97348 93.15704,-53.94695 l -0.01,0.005 c 29.668,-26.97341 59.3357,-53.94688 93.1569,-53.94688 l -0.085,9.2e-4 c 33.8213,0 63.4891,26.97347 93.1569,53.94689 l -0.017,-0.0131 c 29.6677,26.97347 59.3356,53.94695 93.1569,53.94695 l -0.086,-9.3e-4 c 33.8214,0 63.4893,-26.97347 93.1571,-53.94694 l -0.01,0.005 c 29.6679,-26.97342 59.3357,-53.94688 93.1571,-53.94688 l -0.086,9.2e-4 c 33.8213,0 63.489,26.97347 93.157,53.94688 l 0,-0.004 c 29.6676,26.97347 59.3356,53.94694 93.15685,53.94694 l -0.086,-9.2e-4 c 33.8212,0 63.4891,-26.97348 93.1571,-53.94694 l -0.01,0.005 c 29.6678,-26.97341 59.3357,-53.94688 93.1571,-53.94688 l -0.086,9.3e-4 c 33.8212,0 63.4891,26.97346 93.1568,53.94687 l -0.018,-0.0131 c 29.6677,26.97346 59.3357,53.94694 93.157,53.94694 l -0.086,-9.2e-4 c 33.8215,0 63.4893,-26.97348 93.1571,-53.94695 l -0.01,0.005 c 29.668,-26.97341 59.3356,-53.94688 93.1571,-53.94688 l -0.086,9.1e-4 c 33.8213,0 63.4891,26.97347 93.1571,53.94688 l 0.046,0.0116 c 29.6677,26.97347 59.3355,53.94695 93.157,53.94695 l -0.086,-9.1e-4 c 33.8214,0 63.4892,-26.97348 93.1571,-53.94695 l -0.01,0.005 c 29.6679,-26.97341 59.3359,-53.94688 93.157,-53.94688 l -0.086,9.2e-4 c 33.8214,0 63.4893,26.97347 93.1573,53.94689 l -0.018,-0.0131 c 29.6679,26.97347 59.3358,53.94695 93.1572,53.94695 l -0.086,-9.3e-4 c 33.8213,0 63.4892,-26.97347 93.157,-53.94694 l -0.01,0.005 c 29.6679,-26.97342 59.3357,-53.94688 93.157,-53.94688 l -0.086,9.2e-4 c 33.8213,0 63.4893,26.97347 93.1571,53.94688 l 0,-0.004 c 29.6679,26.97347 59.3357,53.94694 93.157,53.94694 l -0.086,-9.2e-4 c 33.8211,0 63.4889,-26.97348 93.1569,-53.94694 l -0.01,0.005 c 29.6678,-26.97341 59.3356,-53.94688 93.1571,-53.94688 l -0.086,9.3e-4 c 33.8213,0 63.4891,26.97346 93.1571,53.94687 l -0.018,-0.0131 c 29.6678,26.97346 59.3355,53.94694 93.1566,53.94694 l -0.085,-9.2e-4 c 33.8214,0 63.4893,-26.97348 93.1568,-53.94695 l -0.01,0.005 c 29.6681,-26.97341 59.3361,-53.94688 93.157,-53.94688 l -0.086,9.1e-4 c 33.8213,0 63.4891,26.97347 93.157,53.94688 l -0.01,0.0116 c 29.6675,26.97347 59.3355,53.94695 93.1567,53.94695 l -0.085,-9.1e-4 c 33.8211,0 63.4889,-26.97348 93.1567,-53.94695 l -0.01,0.005 c 29.6676,-26.97341 59.336,-53.94688 93.1572,-53.94688 l 0.4712,657.35916 -4563.9967,0.1617 z"/>
    <g transform="matrix(0.312578,0,0,0.552047,-786.82926,210.05625)" id="g1321"/>
    <path d="m -1130.163,312.88392 c 29.6679,-26.97341 59.3357,-53.94688 93.1571,-53.94688 l -0.086,9.2e-4 c 33.8213,0 63.48908,26.97347 93.15696,53.94689 l -0.0175,-0.0131 c 29.66782,26.97347 59.33555,53.94695 93.15693,53.94695 l -0.0856,-9.3e-4 c 33.82129,0 63.48913,-26.97347 93.15696,-53.94694 l -0.006,0.005 c 29.6678,-26.97342 59.33565,-53.94688 93.15695,-53.94688 l -0.0856,9.2e-4 c 33.82127,0 63.48912,26.97347 93.15695,53.94688 l -0.004,-0.004 c 29.66782,26.97347 59.33558,53.94694 93.15698,53.94694 l -0.086,-9.2e-4 c 33.8213,0 63.4891,-26.97348 93.157,-53.94694 l -0.01,0.005 c 29.6678,-26.97341 59.3356,-53.94688 93.15689,-53.94688 l -0.086,9.3e-4 c 33.8213,0 63.4892,26.97346 93.1569,53.94687 l -0.018,-0.0131 c 29.6678,26.97346 59.33569,53.94694 93.15689,53.94694 l -0.086,-9.2e-4 c 33.821397,0 63.489097,-26.97348 93.156897,-53.94695 l -0.01,0.005 c 29.6678,-26.97341 59.3358,-53.94688 93.1569,-53.94688 l -0.085,9.1e-4 c 33.821103,0 63.489003,26.97347 93.156803,53.94688 l -0.011,0.0116 c 29.6677,26.97347 59.3356,53.94695 93.1568,53.94695 l -0.086,-9.1e-4 c 33.82134,0 63.48924,-26.97348 93.15704,-53.94695 l -0.01,0.005 c 29.668,-26.97341 59.3357,-53.94688 93.1569,-53.94688 l -0.085,9.2e-4 c 33.8213,0 63.4891,26.97347 93.1569,53.94689 l -0.017,-0.0131 c 29.6677,26.97347 59.3356,53.94695 93.1569,53.94695 l -0.086,-9.3e-4 c 33.8214,0 63.4893,-26.97347 93.1571,-53.94694 l -0.01,0.005 c 29.6679,-26.97342 59.3357,-53.94688 93.1571,-53.94688 l -0.086,9.2e-4 c 33.8213,0 63.489,26.97347 93.157,53.94688 l 0,-0.004 c 29.6676,26.97347 59.3356,53.94694 93.15685,53.94694 l -0.086,-9.2e-4 c 33.8212,0 63.4891,-26.97348 93.1571,-53.94694 l -0.01,0.005 c 29.6678,-26.97341 59.3357,-53.94688 93.1571,-53.94688 l -0.086,9.3e-4 c 33.8212,0 63.4891,26.97346 93.1568,53.94687 l -0.018,-0.0131 c 29.6677,26.97346 59.3357,53.94694 93.157,53.94694 l -0.086,-9.2e-4 c 33.8215,0 63.4893,-26.97348 93.1571,-53.94695 l -0.01,0.005 c 29.668,-26.97341 59.3356,-53.94688 93.1571,-53.94688 l -0.086,9.1e-4 c 33.8213,0 63.4891,26.97347 93.1571,53.94688 l 0.046,0.0116 c 29.6677,26.97347 59.3355,53.94695 93.157,53.94695 l -0.086,-9.1e-4 c 33.8214,0 63.4892,-26.97348 93.1571,-53.94695 l -0.01,0.005 c 29.6679,-26.97341 59.3359,-53.94688 93.157,-53.94688 l -0.086,9.2e-4 c 33.8214,0 63.4893,26.97347 93.1573,53.94689 l -0.018,-0.0131 c 29.6679,26.97347 59.3358,53.94695 93.1572,53.94695 l -0.086,-9.3e-4 c 33.8213,0 63.4892,-26.97347 93.157,-53.94694 l -0.01,0.005 c 29.6679,-26.97342 59.3357,-53.94688 93.157,-53.94688 l -0.086,9.2e-4 c 33.8213,0 63.4893,26.97347 93.1571,53.94688 l 0,-0.004 c 29.6679,26.97347 59.3357,53.94694 93.157,53.94694 l -0.086,-9.2e-4 c 33.8211,0 63.4889,-26.97348 93.1569,-53.94694 l -0.01,0.005 c 29.6678,-26.97341 59.3356,-53.94688 93.1571,-53.94688 l -0.086,9.3e-4 c 33.8213,0 63.4891,26.97346 93.1571,53.94687 l -0.018,-0.0131 c 29.6678,26.97346 59.3355,53.94694 93.1566,53.94694 l -0.085,-9.2e-4 c 33.8214,0 63.4893,-26.97348 93.1568,-53.94695 l -0.01,0.005 c 29.6681,-26.97341 59.3361,-53.94688 93.157,-53.94688 l -0.086,9.1e-4 c 33.8213,0 63.4891,26.97347 93.157,53.94688 l -0.01,0.0116 c 29.6675,26.97347 59.3355,53.94695 93.1567,53.94695 l -0.085,-9.1e-4 c 33.8211,0 63.4889,-26.97348 93.1567,-53.94695 l -0.01,0.005 c 29.6676,-26.97341 59.336,-53.94688 93.1572,-53.94688 l 0.4712,657.35916 -4563.9967,0.1617 z" style="fill:#aaeeff;fill-opacity:1;fill-rule:evenodd;stroke:#aaeeff;stroke-width:9.33389091;stroke-linecap:round;stroke-linejoin:miter;stroke-miterlimit:4;stroke-dasharray:none;stroke-opacity:1" id="path1363-3-6"/>
    <path d="m -1262.3248,312.88392 c 29.6679,-26.97341 59.3357,-53.94688 93.157,-53.94688 l -0.086,9.2e-4 c 33.8214,0 63.4892,26.97347 93.157,53.94689 l -0.018,-0.0131 c 29.6679,26.97347 59.3356,53.94695 93.15697,53.94695 l -0.0856,-9.3e-4 c 33.82129,0 63.48913,-26.97347 93.15696,-53.94694 l -0.006,0.005 c 29.6678,-26.97342 59.33565,-53.94688 93.15695,-53.94688 l -0.0856,9.2e-4 c 33.82127,0 63.48912,26.97347 93.15695,53.94688 l -0.004,-0.004 c 29.66782,26.97347 59.33558,53.94694 93.15697,53.94694 l -0.086,-9.2e-4 c 33.8213,0 63.4891,-26.97348 93.157,-53.94694 l -0.01,0.005 c 29.6678,-26.97341 59.3356,-53.94688 93.1569,-53.94688 l -0.086,9.3e-4 c 33.8213,0 63.4892,26.97346 93.1569,53.94687 l -0.018,-0.0131 c 29.6678,26.97346 59.3357,53.94694 93.1569,53.94694 l -0.086,-9.2e-4 c 33.8214,0 63.4891,-26.97348 93.15686,-53.94695 l -0.01,0.005 c 29.6678,-26.97341 59.335804,-53.94688 93.156904,-53.94688 l -0.085,9.1e-4 c 33.8211,0 63.489,26.97347 93.1568,53.94688 l -0.011,0.0116 c 29.6677,26.97347 59.335596,53.94695 93.156796,53.94695 l -0.086,-9.1e-4 c 33.8213,0 63.4892,-26.97348 93.157,-53.94695 l -0.01,0.005 c 29.668,-26.97341 59.33574,-53.94688 93.15694,-53.94688 l -0.085,9.2e-4 c 33.8213,0 63.4891,26.97347 93.1569,53.94689 l -0.017,-0.0131 c 29.6677,26.97347 59.3356,53.94695 93.1569,53.94695 l -0.086,-9.3e-4 c 33.8214,0 63.4893,-26.97347 93.1571,-53.94694 l -0.01,0.005 c 29.6679,-26.97342 59.3357,-53.94688 93.1571,-53.94688 l -0.086,9.2e-4 c 33.8213,0 63.489,26.97347 93.157,53.94688 l 0,-0.004 c 29.6676,26.97347 59.3356,53.94694 93.1569,53.94694 l -0.086,-9.2e-4 c 33.8212,0 63.4891,-26.97348 93.1571,-53.94694 l -0.01,0.005 c 29.6678,-26.97341 59.3357,-53.94688 93.1571,-53.94688 l -0.086,9.3e-4 c 33.8212,0 63.4891,26.97346 93.1568,53.94687 l -0.018,-0.0131 c 29.6677,26.97346 59.3357,53.94694 93.157,53.94694 l -0.086,-9.2e-4 c 33.8215,0 63.4893,-26.97348 93.1571,-53.94695 l -0.01,0.005 c 29.668,-26.97341 59.3356,-53.94688 93.1571,-53.94688 l -0.086,9.1e-4 c 33.8213,0 63.4891,26.97347 93.1571,53.94688 l 0.046,0.0116 c 29.6677,26.97347 59.3355,53.94695 93.157,53.94695 l -0.086,-9.1e-4 c 33.8214,0 63.4892,-26.97348 93.1571,-53.94695 l -0.01,0.005 c 29.6679,-26.97341 59.3359,-53.94688 93.157,-53.94688 l -0.086,9.2e-4 c 33.8214,0 63.4893,26.97347 93.1573,53.94689 l -0.018,-0.0131 c 29.6679,26.97347 59.3358,53.94695 93.1572,53.94695 l -0.086,-9.3e-4 c 33.8213,0 63.4892,-26.97347 93.157,-53.94694 l -0.01,0.005 c 29.6679,-26.97342 59.3357,-53.94688 93.157,-53.94688 l -0.086,9.2e-4 c 33.8213,0 63.4893,26.97347 93.1571,53.94688 l 0,-0.004 c 29.6679,26.97347 59.3357,53.94694 93.157,53.94694 l -0.086,-9.2e-4 c 33.8211,0 63.4889,-26.97348 93.1569,-53.94694 l -0.01,0.005 c 29.6678,-26.97341 59.3356,-53.94688 93.1571,-53.94688 l -0.086,9.3e-4 c 33.8213,0 63.4891,26.97346 93.1571,53.94687 l -0.018,-0.0131 c 29.6678,26.97346 59.3355,53.94694 93.1566,53.94694 l -0.085,-9.2e-4 c 33.8214,0 63.4893,-26.97348 93.1568,-53.94695 l -0.01,0.005 c 29.6681,-26.97341 59.3361,-53.94688 93.157,-53.94688 l -0.086,9.1e-4 c 33.8213,0 63.4891,26.97347 93.157,53.94688 l -0.01,0.0116 c 29.6675,26.97347 59.3355,53.94695 93.1567,53.94695 l -0.085,-9.1e-4 c 33.8211,0 63.4889,-26.97348 93.1567,-53.94695 l -0.01,0.005 c 29.6676,-26.97341 59.336,-53.94688 93.1572,-53.94688 l 0.4712,657.35915 -4563.9967,0.1617 z" style="fill:#80b3ff;fill-opacity:1;fill-rule:evenodd;stroke:#80b3ff;stroke-width:9.33389091;stroke-linecap:round;stroke-linejoin:miter;stroke-miterlimit:4;stroke-dasharray:none;stroke-opacity:1" id="path1363-3"/>
    <path d="m -650.06426,314.63001 c 29.66789,-26.97341 59.33572,-53.94688 93.15703,-53.94688 l -0.0856,9.2e-4 c 33.82137,0 63.48912,26.97347 93.15699,53.94689 l -0.0175,-0.0131 c 29.66783,26.97347 59.33556,53.94694 93.15694,53.94694 l -0.0856,-9.3e-4 c 33.82129,0 63.48913,-26.97346 93.15696,-53.94693 l -0.006,0.005 c 29.66782,-26.97342 59.33567,-53.94688 93.15697,-53.94688 l -0.0856,9.2e-4 c 33.82127,0 63.48912,26.97347 93.15695,53.94688 l -0.004,-0.004 c 29.66782,26.97347 59.33558,53.94693 93.15695,53.94693 l -0.0856,-9.2e-4 c 33.82131,0 63.48915,-26.97347 93.15699,-53.94693 l -0.006,0.005 c 29.66784,-26.97341 59.33559,-53.94688 93.15695,-53.94688 l -0.0856,9.3e-4 c 33.8213,0 63.48914,26.97346 93.15685,53.94687 l -0.0177,-0.0131 c 29.66781,26.97346 59.33569,53.94693 93.15694,53.94693 l -0.0855,-9.2e-4 c 33.82139,0 63.48905,-26.97347 93.15692,-53.94694 l -0.006,0.005 c 29.66779,-26.97341 59.33573,-53.94688 93.15688,-53.94688 l -0.085,9.1e-4 c 33.8211,0 63.489,26.97347 93.1568,53.94688 l -0.011,0.0116 c 29.6677,26.97347 59.3356,53.94694 93.1568,53.94694 l -0.086,-9.1e-4 c 33.8213,0 63.4892,-26.97347 93.157,-53.94694 l -0.01,0.005 c 29.668,-26.97341 59.3357,-53.94688 93.1569,-53.94688 l -0.085,9.2e-4 c 33.8213,0 63.4891,26.97347 93.15694,53.94689 l -0.017,-0.0131 c 29.6677,26.97347 59.3356,53.94694 93.1569,53.94694 l -0.086,-9.3e-4 c 33.8214,0 63.4893,-26.97346 93.1571,-53.94693 l -0.01,0.005 c 29.6679,-26.97342 59.3357,-53.94688 93.1571,-53.94688 l -0.086,9.2e-4 c 33.8213,0 63.489,26.97347 93.157,53.94688 l 0,-0.004 c 29.6676,26.97347 59.3356,53.94693 93.1569,53.94693 l -0.086,-9.2e-4 c 33.8212,0 63.4891,-26.97347 93.1571,-53.94693 l -0.01,0.005 c 29.6678,-26.97341 59.3357,-53.94688 93.1571,-53.94688 l -0.086,9.3e-4 c 33.8212,0 63.4891,26.97346 93.1568,53.94687 l -0.018,-0.0131 c 29.6677,26.97346 59.3357,53.94693 93.157,53.94693 l -0.086,-9.2e-4 c 33.8215,0 63.4893,-26.97347 93.1571,-53.94694 l -0.01,0.005 c 29.668,-26.97341 59.3356,-53.94688 93.1571,-53.94688 l -0.086,9.1e-4 c 33.8213,0 63.4891,26.97347 93.1571,53.94688 l 0.046,0.0116 c 29.6677,26.97347 59.3355,53.94694 93.157,53.94694 l -0.086,-9.1e-4 c 33.8214,0 63.4892,-26.97347 93.1571,-53.94694 l -0.01,0.005 c 29.6679,-26.97341 59.3359,-53.94688 93.157,-53.94688 l -0.086,9.2e-4 c 33.8214,0 63.4893,26.97347 93.1573,53.94689 l -0.018,-0.0131 c 29.6679,26.97347 59.3358,53.94694 93.1572,53.94694 l -0.086,-9.3e-4 c 33.8213,0 63.4892,-26.97346 93.157,-53.94693 l -0.01,0.005 c 29.6679,-26.97342 59.3357,-53.94688 93.157,-53.94688 l -0.086,9.2e-4 c 33.8213,0 63.4893,26.97347 93.1571,53.94688 l 0,-0.004 c 29.6679,26.97347 59.3357,53.94693 93.157,53.94693 l -0.086,-9.2e-4 c 33.8211,0 63.4889,-26.97347 93.1569,-53.94693 l -0.01,0.005 c 29.6678,-26.97341 59.3356,-53.94688 93.1571,-53.94688 l -0.086,9.3e-4 c 33.8213,0 63.4891,26.97346 93.1571,53.94687 l -0.018,-0.0131 c 29.6678,26.97346 59.3355,53.94693 93.1566,53.94693 l -0.085,-9.2e-4 c 33.8214,0 63.4893,-26.97347 93.1568,-53.94694 l -0.01,0.005 c 29.6681,-26.97341 59.3361,-53.94688 93.157,-53.94688 l -0.086,9.1e-4 c 33.8213,0 63.4891,26.97347 93.157,53.94688 l -0.01,0.0116 c 29.6675,26.97347 59.3355,53.94694 93.1567,53.94694 l -0.085,-9.1e-4 c 33.8211,0 63.4889,-26.97347 93.1567,-53.94694 l -0.01,0.005 c 29.6676,-26.97341 59.336,-53.94688 93.1572,-53.94688 l 0.4667,657.35913 -4563.99677,0.16172 z" style="fill:#396cff;fill-opacity:1;fill-rule:evenodd;stroke:#396cff;stroke-width:9.33389091;stroke-linecap:round;stroke-linejoin:miter;stroke-miterlimit:4;stroke-dasharray:none;stroke-opacity:1" id="path1363"/>
  </g>
</svg>