<?xml version="1.0" encoding="UTF-8" standalone="no"?>
<!-- Created with Inkscape (http://www.inkscape.org/) -->

<svg
   xmlns:dc="http://purl.org/dc/elements/1.1/"
   xmlns:cc="http://creativecommons.org/ns#"
   xmlns:rdf="http://www.w3.org/1999/02/22-rdf-syntax-ns#"
   xmlns:svg="http://www.w3.org/2000/svg"
   xmlns="http://www.w3.org/2000/svg"
   xmlns:sodipodi="http://sodipodi.sourceforge.net/DTD/sodipodi-0.dtd"
   xmlns:inkscape="http://www.inkscape.org/namespaces/inkscape"
   width="326.85367mm"
   height="143.80527mm"
   viewBox="0 0 1158.1429 509.54622"
   id="svg2"
   version="1.1"
   inkscape:version="0.91 r13725"
   sodipodi:docname="disegno.svg">
  <defs
     id="defs4" />
  <sodipodi:namedview
     id="base"
     pagecolor="#ffffff"
     bordercolor="#666666"
     borderopacity="1.0"
     inkscape:pageopacity="0.0"
     inkscape:pageshadow="2"
     inkscape:zoom="0.35"
     inkscape:cx="48.764587"
     inkscape:cy="30.471564"
     inkscape:document-units="px"
     inkscape:current-layer="layer1"
     showgrid="false"
     showguides="true"
     inkscape:guide-bbox="true"
     inkscape:window-width="1366"
     inkscape:window-height="712"
     inkscape:window-x="1366"
     inkscape:window-y="26"
     inkscape:window-maximized="1"
     fit-margin-top="0"
     fit-margin-left="0"
     fit-margin-right="0"
     fit-margin-bottom="0">
    <sodipodi:guide
       position="0.50000032,860.5"
       orientation="1,0"
       id="guide3336" />
    <sodipodi:guide
       position="1157.6429,811.92858"
       orientation="1,0"
       id="guide3338" />
    <sodipodi:guide
       position="426.21427,0.50002376"
       orientation="0,1"
       id="guide3340" />
    <sodipodi:guide
       position="326.21427,409.07144"
       orientation="0,1"
       id="guide3342" />
  </sodipodi:namedview>
  <metadata
     id="metadata7">
    <rdf:RDF>
      <cc:Work
         rdf:about="">
        <dc:format>image/svg+xml</dc:format>
        <dc:type
           rdf:resource="http://purl.org/dc/dcmitype/StillImage" />
        <dc:title></dc:title>
      </cc:Work>
    </rdf:RDF>
  </metadata>
  <g
     inkscape:label="Livello 1"
     inkscape:groupmode="layer"
     id="layer1"
     transform="translate(-85.214285,-614.7446)">
    <path
       style="fill:#aaccff;fill-rule:evenodd;stroke:#aaccff;stroke-width:1px;stroke-linecap:butt;stroke-linejoin:miter;stroke-opacity:1"
       d="m 85.714285,715.21935 c 41.668635,-49.63605 57.230985,-143.4771 121.348395,-8.40148 25.98876,54.75032 102.90581,52.53486 121.67062,-7.00485 59.42615,-188.55592 157.2021,43.46677 161.38021,-6.72801 8.64227,-103.82618 82.27488,5.02013 99.93185,-2.49704 62.74135,-26.71111 40.68993,-104.22862 104.24035,-1.08291 19.75508,32.06353 99.87037,-34.52595 112.86806,0.74373 32.85039,89.14062 68.52173,-69.96455 107.01128,2.70918 11.16133,21.07417 36.21961,66.10809 71.44534,2.97602 15.63821,-28.027 82.22351,-23.34466 96.06971,5.57362 6.5652,13.71174 64.5293,51.39761 88.1765,6.79695 11.4514,-21.59848 48.6891,4.41101 73.0006,6.91479 l 0,408.57145 -1157.142915,0 0,-408.57145"
       id="path3350"
       inkscape:connector-curvature="0"
       sodipodi:nodetypes="csssssssssscccc" />
    <path
       style="fill:#5599ff;fill-rule:evenodd;stroke:#5599ff;stroke-width:1px;stroke-linecap:butt;stroke-linejoin:miter;stroke-opacity:1"
       d="m 85.714285,1123.7908 0,-408.57145 c 43.641315,-75.11314 84.986665,-56.94239 142.613255,-7.46505 4.34166,3.7277 5.93626,7.46505 31.28993,27.65533 54.9178,43.73356 43.36041,-11.56886 58.63001,-30.37715 30.83611,-37.9823 67.68936,-31.34278 80.26148,-1.31987 5.01142,11.96755 33.00971,11.50674 38.89543,-0.30722 16.99718,-34.11715 83.35734,-104.17912 114.15628,0.1603 10.75151,36.42354 75.06874,60.9172 96.89758,1.13334 17.93274,-49.11339 47.33452,-97.67018 117.30179,2.19197 12.1819,17.38685 84.39342,-68.50329 108.0127,2.42046 17.73226,53.24625 47.52355,101.70825 65.69443,1.49319 7.98621,-44.04512 113.94283,42.59784 134.33293,2.68503 15.2403,-29.83227 57.2359,-73.22224 69.6621,-24.30922 8.551,33.65962 59.0264,51.47817 99.395,26.03889 l 0,408.57145 -1157.142915,0"
       id="path3344"
       inkscape:connector-curvature="0"
       sodipodi:nodetypes="ccssssssssssssccc" />
    <path
       style="fill:#0055d4;fill-rule:evenodd;stroke:#0055d4;stroke-width:1px;stroke-linecap:butt;stroke-linejoin:miter;stroke-opacity:1"
       d="m 85.714285,715.21935 0,408.57145 1157.142915,0 0,-408.57145 c -16.1875,-0.18694 -44.4679,97.78696 -47.0113,-8.23982 -1.118,-46.60761 -59.4268,63.75226 -73.3206,3.73921 -13.0685,-56.44847 -119.5836,-62.90433 -172.64965,-14.22797 -9.57052,8.77882 -25.84511,84.5901 -38.76234,-3.85245 -3.3213,-22.74053 -50.80927,-118.95713 -68.59194,-6.93321 -15.49228,97.59537 -66.16338,69.70931 -64.21154,-6.28387 1.27498,-49.64007 -56.50972,-111.83273 -84.44685,-7.32983 -15.68016,58.65393 -55.69593,72.03124 -56.98435,-3.97194 -0.90756,-53.53659 -26.9465,14.27248 -47.14898,-2.4907 -50.18785,-41.6438 -95.90252,-34.02467 -109.76356,-2.24702 -27.98208,64.15137 -25.62703,43.01424 -73.98341,1.89119 -12.74506,-10.83861 -87.64817,48.40631 -93.13207,7.0275 -14.28481,-107.78615 -52.89947,-36.05863 -61.75178,7.84884 -26.18624,129.88371 -55.82869,46.87052 -76.81363,13.63901 -51.12501,-80.96099 -78.966633,-17.78438 -88.570915,21.43106"
       id="path3352"
       inkscape:connector-curvature="0"
       sodipodi:nodetypes="ccccssssssssssssssc" />
  </g>
</svg>
